<?xml version="1.0" encoding="UTF-8"?>
<svg version="1.1" viewBox="0 0 2000 2000" width="1280" height="1280" xmlns="http://www.w3.org/2000/svg">
<path transform="translate(0)" d="m0 0h2e3v2e3h-2e3z" fill="#2B063D"/>
<path transform="translate(457,763)" d="m0 0h1370l97 1 1 97v658l-1 92-1 1h-1538l-1-1v-846l1-1z" fill="#E7CFFA"/>
<path transform="translate(801,71)" d="m0 0h72l50 1 1 1v152h460v-32l1-121 32-1h63l60 1v153h165l27 3 27 6 20 7 16 7 19 11 15 10 16 13 16 15 9 10 15 20 11 18 10 19 9 25 6 25 3 24 1 23v82l-1 67-1 1h-1538l-1-1v-170l3-23 5-23 8-24 11-23 12-19 12-17 14-15 14-14 14-11 21-14 20-11 25-10 23-6 17-3 9-1 22-1h154v-64l1-89z" fill="#E8D0FA"/>
<path transform="translate(77,687)" d="m0 0h153l1 15v1063l287-1h940l158 1 1 1v152l-6 2h-1534l-1-1-1-119v-1e3l1-111z" fill="#E7CFF9"/>
<path transform="translate(809,907)" d="m0 0h25l14 4 14 8 8 7 10 13 2 1 4-24 2-4h60l-3 19-18 102-21 120-3 14-2 1h-172l-4-1 1-10 6-34 1-3 117-1 4-20 4-23 1-4-5 3-9 8-13 8-14 5-5 1h-24l-13-3-16-8-11-9-10-13-6-12-5-18-1-8v-22l4-22 6-16 9-17 8-10 8-9 13-10 16-8 13-4z" fill="#2B063D"/>
<path transform="translate(556,847)" d="m0 0h122l2 12 11 117 11 114v9l-2 1h-28l-36-1-1-1-3-42-1-6h-97l-16 37-6 12-13 1h-55l-1-2 16-35 16-36 17-38 14-31 16-36 13-29 15-34z" fill="#2B063D"/>
<path transform="translate(1581,847)" d="m0 0h61l-1 11-16 89-21 119-5 28-2 5-9 1h-40l-11-1 2-16 1-7-5 3-9 9-14 9-12 6-8 2h-19l-14-3-16-8-10-8-9-10-8-16-4-12-2-13v-29l2-13 5-19 8-17 9-14 11-12 8-7 11-7 10-5 13-4 6-1h23l14 4 14 8 10 10 8 12h2l9-48z" fill="#2B063D"/>
<path transform="translate(1670,1266)" d="m0 0h24l12 3 15 8 10 9 7 8 5 8 2-2 5-27 2-2h62l-1 11-12 67-12 68-8 45-2 5h-63l3-19v-4h-3l-6 7-10 8-18 10-8 3-4 1h-21l-14-3-10-4-11-7-12-11-7-10-7-16-4-16-1-7v-28l4-23 5-15 8-16 6-10 9-11 10-10 14-9 12-6 13-4z" fill="#2B063D"/>
<path transform="translate(1054,907)" d="m0 0h28l16 3 15 6 11 6 9 7 8 7 10 14 6 12 5 17 1 7v23l-2 7-141 1v7l3 11 4 8 5 5 5 4 9 3 14 1 11-2 10-5 7-6 4-6h66l-2 6-6 11-9 12-10 11-13 10-14 8-16 6-13 3-11 1h-15l-18-2-17-5-14-7-11-8-9-8-9-12-8-16-4-14-1-7v-25l3-15 6-15 7-13 9-12 7-8 11-9 14-9 12-6 16-5z" fill="#2B063D"/>
<path transform="translate(1740,907)" d="m0 0h27l16 3 15 6 11 6 9 7 8 7 10 14 8 17 4 17v25l-2 7-141 1v8l4 12 5 8 8 7 9 3 14 1 14-3 10-6 6-7 2-3h66l-2 6-8 14-8 10-9 10-13 10-14 8-16 6-13 3-15 1h-11l-18-2-17-5-14-7-11-8-10-9-9-13-7-14-4-14-1-6v-27l4-17 5-12 7-13 9-12 14-14 14-10 19-9 14-4z" fill="#2B063D"/>
<path transform="translate(1508,1203)" d="m0 0h69l-2 14-18 100-11 63-5 22-7 18-9 15-11 13-12 10-16 9-13 5-18 4-10 1h-18l-19-2-17-5-16-8-11-8-10-10-10-16-6-15-2-6v-4l32-7 30-6h4l4 8 5 6 10 6 7 2h17l10-3 8-5 6-7 4-8 4-15 26-147 4-23z" fill="#2B063D"/>
<path transform="translate(1314,907)" d="m0 0h24l13 3 14 7 10 9 8 13 5 17 1 16-2 18-17 97-3 12h-60l1-11 10-56 7-40v-13l-5-12-8-7-9-3h-13l-12 4-10 8-7 10-5 14-17 98-3 8h-59v-7l12-66 14-80 6-34h61l-1 10-1 13 4-2 6-7 12-9 16-8z" fill="#2B063D"/>
<path transform="translate(1689,1320)" d="m0 0h15l12 4 10 9 5 9 3 10v16l-3 15-5 12-8 11-9 7-11 5-4 1h-15l-10-3-9-6-7-8-4-11-1-6v-13l3-16 5-12 8-11 9-7 8-4z" fill="#E6CDF8"/>
<path transform="translate(1510,959)" d="m0 0h16l9 3 9 6 6 9 3 7 1 5v16l-3 14-4 10-6 9-8 8-13 6-5 1h-14l-12-4-9-7-6-12-2-8v-16l3-14 8-16 10-10 12-6z" fill="#E6CDF8"/>
<path transform="translate(830,960)" d="m0 0h9l12 3 9 6 6 7 4 8 1 4v20l-4 13-6 10-6 7-7 5-11 4-14 1-10-2-10-5-7-7-5-11-1-4v-18l3-12 5-9 9-10 9-6 8-3z" fill="#E6CDF8"/>
<path transform="translate(595,908)" d="m0 0h25l2 13 5 56v14l-1 1h-67l1-6 13-29 15-35 5-12z" fill="#E4CBF7"/>
<path transform="translate(1732,1175)" d="m0 0h64l-2 4-19 19-8 7-13 13-8 7-7 7-3 1h-24l-16-1 2-5 26-39z" fill="#2B063D"/>
<path transform="translate(1745,955)" d="m0 0h13l9 3 9 6 5 6 5 10 1 5-3 2h-70l-4-1 1-5 7-11 10-9 8-4z" fill="#DEC4F2"/>
<path transform="translate(1060,955)" d="m0 0h14l10 4 8 6 7 10 2 5v6l-2 1h-68l-6-1 1-5 7-11 7-7 11-6z" fill="#DFC5F3"/>
</svg>
