<?xml version="1.0" encoding="UTF-8"?>
<svg version="1.1" viewBox="0 0 2000 2000" width="1280" height="1280" xmlns="http://www.w3.org/2000/svg">
<path transform="translate(338,751)" d="m0 0h1662v914l-1664 1-2-2-1-141v-578l1-193z" fill="#EAD1FA"/>
<path transform="translate(750)" d="m0 0h165l1 165-1 2h502v-167h165v167h158l31 1 20 2 23 5 19 6 20 8 23 12 21 14 16 13 12 11 7 7 9 11 8 10 14 21 10 18 7 15 8 22 7 26 5 27v186l-1664 1-2-1-1-8 1-173 3-26 5-23 9-27 11-24 12-20 12-17 13-15 11-12 11-10 14-11 14-10 21-12 19-9 30-10 29-6 12-1 190-1z" fill="#EAD1FA"/>
<path transform="translate(0,668)" d="m0 0h165l1 1v1165h1477l22 1 1 2v163h-1666z" fill="#EAD1FA"/>
<path transform="translate(816,906)" d="m0 0h11l13 2 13 5 12 8 8 8 6 9 3 1 1-9 3-16 3-3h59l-1 11-16 91-24 137-3 15-2 3-17 1-161-1 2-13 6-34 4-2h114l5-29 2-13 1-4-8 6-10 8-14 7-17 4h-16l-16-3-16-8-10-8-7-7-7-11-5-11-4-14-1-6v-29l4-20 5-14 10-19 9-11 10-10 13-9 14-7 15-4z" fill="#2B043D"/>
<path transform="translate(558,846)" d="m0 0 121 1 4 39 19 200 1 13-1 1h-67l-2-22-2-29-96 1-3 5-8 19-9 21-4 5h-68l1-5 16-35 12-27 18-40 12-27 18-40 18-41 17-38z" fill="#2B043D"/>
<path transform="translate(1581,847)" d="m0 0h62l-4 24-17 95-14 80-8 45-3 9h-60l-1-3 3-17v-3h-2l-7 8-13 10-14 7-10 3h-23l-12-3-14-7-13-10-9-12-7-14-4-14-2-15v-16l2-19 5-19 9-20 8-12 11-13 10-8 13-8 12-5 12-3h27l15 5 11 7 7 6 9 12 2 3h2l14-78 2-14z" fill="#2B043D"/>
<path transform="translate(1676,1265)" d="m0 0h12l13 2 12 5 10 6 10 9 7 10 4 4 2-9 4-20 1-1h64l-3 19-20 113-11 61-1 3-2 1h-61l-1-1 1-10 2-14-8 7-9 8-15 9-11 5-9 2h-16l-15-3-12-5-12-8-12-12-8-13-5-13-3-11-2-18 1-24 4-21 6-16 8-16 10-14 9-10 13-10 17-9 12-4z" fill="#2B043D"/>
<path transform="translate(1747,906)" d="m0 0h12l17 2 17 5 17 9 10 8 9 9 9 14 7 16 3 12 1 7v17l-2 10-2 2-140 1 1 10 4 11 6 8 7 5 5 2 6 1h17l11-4 8-6 5-6 1-2 6-1h61l-1 5-7 14-10 13-12 12-14 10-16 8-16 5-12 2h-30l-15-3-14-5-15-8-11-9-8-8-7-10-7-14-4-13-2-14v-15l3-18 6-16 8-15 11-14 9-9 15-11 15-8 15-5 13-3z" fill="#2B043D"/>
<path transform="translate(1062,906)" d="m0 0h13l16 2 16 5 16 8 11 8 10 10 9 14 5 11 4 13 2 14v13l-1 10-2 3h-141l1 11 5 13 7 8 8 4 7 2h17l10-3 9-6 8-9 7-1h59l-1 6-8 14-7 9-9 10-10 9-16 10-15 6-15 4-7 1h-29l-20-4-17-7-12-8-12-11-10-13-7-14-4-13-2-13v-16l3-18 6-16 8-15 11-14 9-9 15-11 15-8 18-6 10-2z" fill="#2B043D"/>
<path transform="translate(1507,1203)" d="m0 0h70l-1 11-22 123-9 51-6 21-9 19-8 11-9 10-9 8-15 9-15 6-16 4-7 1h-34l-19-4-15-6-15-9-12-11-9-13-7-14-4-12v-5l16-4 43-9h7l5 9 9 8 10 4 5 1h12l11-3 8-4 6-7 5-10 5-22 27-153z" fill="#2B043D"/>
<path transform="translate(1320,906)" d="m0 0h11l14 2 13 5 10 6 8 8 7 11 5 16 1 6v20l-6 36-13 73-2 10-2 1h-58l-2-1 2-13 13-72 3-17v-20l-4-9-4-5-10-5h-18l-11 4-12 11-7 14-5 26-13 75-3 11-2 1h-59l1-10 8-44 14-80 9-51 1-3h61l1 2-4 21 5-3 9-9 15-10 12-5z" fill="#2B043D"/>
<path transform="translate(1694,1320)" d="m0 0 16 2 8 4 7 6 6 10 2 8v22l-4 16-7 13-10 10-12 6-11 2-13-1-10-4-8-6-6-9-3-10v-22l4-16 7-13 9-9 8-5 9-3z" fill="#EAD1FA"/>
<path transform="translate(1512,959)" d="m0 0h12l10 3 8 5 6 7 4 9 1 4v22l-4 15-6 11-9 10-12 6-10 2h-9l-13-4-8-6-4-5-4-9-1-4v-23l4-14 7-13 7-7 10-6z" fill="#EAD1FA"/>
<path transform="translate(827,961)" d="m0 0h15l10 3 9 6 7 10 3 11v13l-2 11-8 16-9 9-10 5-7 2h-17l-11-4-8-6-6-9-3-11v-12l3-15 6-11 8-9 10-6z" fill="#EAD1FA"/>
<path transform="translate(595,908)" d="m0 0h24l2 7 6 68v8h-68l2-6 11-25 18-42z" fill="#EAD1FA"/>
<path transform="translate(1734,1174)" d="m0 0h61l2 2-7 8-8 7-18 18-8 7-13 13-5 4h-43l2-5 27-41 8-12z" fill="#2B043D"/>
<path transform="translate(1065,955)" d="m0 0 11 1 8 3 10 9 5 8 2 9-1 1h-74l-1-2 6-11 11-11 8-4 7-2z" fill="#EAD1FA"/>
<path transform="translate(1750,955)" d="m0 0 15 2 9 6 8 9 4 10v3l-2 1h-73l1-6 6-9 5-6 9-6 10-3z" fill="#EAD1FA"/>
</svg>
